<?xml version="1.0" encoding="iso-8859-1"?>
<!-- Generator: Adobe Illustrator 19.0.0, SVG Export Plug-In . SVG Version: 6.00 Build 0)  -->
<svg version="1.1" id="Capa_1" xmlns="http://www.w3.org/2000/svg" xmlns:xlink="http://www.w3.org/1999/xlink" x="0px" y="0px"
	 viewBox="0 0 512 512" style="enable-background:new 0 0 512 512;" xml:space="preserve">
<path style="fill:#FEA832;" d="M485.329,150.993c0-24.903-20.1-45.003-45.003-45.003H231.314L175.51,50.486
	c-2.699-3-6.599-4.499-10.5-4.499H45.003C20.1,45.987,0,66.087,0,90.99v330.02c0,24.9,20.1,45.003,45.003,45.003h30.002
	c2.999,0,6-0.901,8.402-2.701l178.41-119.707L478.73,193.595c4.199-2.701,6.599-7.5,6.599-12.3V150.993z"/>
<path style="fill:#FE9923;" d="M485.329,150.993v30.302c0,4.799-2.401,9.599-6.599,12.3L261.816,343.604V105.991h178.511
	C465.229,105.991,485.329,126.091,485.329,150.993z"/>
<path style="fill:#FEDB41;" d="M508.732,242.799c0.899-9.001-6-16.801-15.001-16.801H98.407c-7.5,0-14.102,5.7-15.001,13.201
	c-8.402,76.204-14.703,134.107-23.402,210.013c-0.901,9.001,6,16.801,15.001,16.801h368.322c22.801,0,42.304-17.101,45.003-39.903
	C495.531,359.506,501.231,309.101,508.732,242.799z"/>
<path style="fill:#FFCC33;" d="M508.732,242.799c-7.5,66.303-13.201,116.707-20.403,183.311
	c-2.699,22.801-22.201,39.903-45.003,39.903h-181.51V225.999h231.915C502.731,225.998,509.631,233.798,508.732,242.799z"/>
<path style="fill:#FEDBAB;" d="M473.929,166.592c-2.999-0.599-117.306-0.599-212.113-0.599H132.009
	c-22.801,0-42.304,17.101-45.003,40.201l-5.402,49.804h425.627l4.501-39.903v-0.3C514.43,191.195,496.43,168.993,473.929,166.592z"
	/>
<path style="fill:#FEC478;" d="M511.732,215.796v0.3L507.231,256H261.816v-90.005c94.807,0,209.114,0,212.113,0.599
	C496.43,168.993,514.43,191.195,511.732,215.796z"/>
<g>
</g>
<g>
</g>
<g>
</g>
<g>
</g>
<g>
</g>
<g>
</g>
<g>
</g>
<g>
</g>
<g>
</g>
<g>
</g>
<g>
</g>
<g>
</g>
<g>
</g>
<g>
</g>
<g>
</g>
</svg>
