<?xml version="1.0" encoding="iso-8859-1"?>
<!-- Generator: Adobe Illustrator 19.0.0, SVG Export Plug-In . SVG Version: 6.00 Build 0)  -->
<svg version="1.1" id="Capa_1" xmlns="http://www.w3.org/2000/svg" xmlns:xlink="http://www.w3.org/1999/xlink" x="0px" y="0px"
	 viewBox="0 0 512 512" style="enable-background:new 0 0 512 512;" xml:space="preserve">
<path style="fill:#1689FC;" d="M497,255c0,132.299-107.703,242-240,242S15,387.299,15,255S124.703,15,257,15S497,122.701,497,255z"
	/>
<path style="fill:#136EF1;" d="M497,255c0,132.299-107.703,242-240,242V15C389.297,15,497,122.701,497,255z"/>
<path style="fill:#1DE8F1;" d="M257,0c-0.3,0-0.3,0-0.601,0c0,0,0,0-0.3,0C115.401,0.601,0,116.1,0,255c0,138.6,115.401,257,257,257
	c140.999,0,255-117.499,255-257C512,116.4,398.599,0,257,0z M208.4,35.4C182.3,60,159.302,88.5,143.701,120H75.3
	C107.102,77.999,154.999,47.401,208.4,35.4z M56.1,150h74.399C120,178.5,114.001,208.801,112.5,240H30.901
	C32.999,207.599,41.7,177.299,56.1,150z M56.1,362c-14.399-27.299-23.101-59.599-25.199-92H112.5c1.501,31.199,7.5,63.5,17.999,92
	H56.1z M75.3,392h68.401c15.601,31.5,38.599,60,64.699,84.6C154.999,464.599,107.102,434.001,75.3,392z M242,467
	c-25.499-21-48.501-46.8-64.402-75H242V467z M242,362h-79.102c-11.697-28.2-18.896-60.5-20.398-92H242V362z M242,240h-99.5
	c1.501-31.5,8.701-61.8,20.398-90H242V240z M242,120h-64.402C193.499,91.8,216.501,66,242,45V120z M455.9,150
	c14.399,27.299,23.101,57.599,25.199,90H399.5c-1.501-31.199-7.5-61.5-17.999-90H455.9z M436.7,120h-68.401
	C352.698,88.5,331.7,60,305.6,35.4C359.001,47.401,404.898,77.999,436.7,120z M272,45.3c25.499,21,46.501,46.5,62.402,74.7H272V45.3
	z M272,150h77.102c11.997,28.2,18.596,58.5,20.398,90H272V150z M272,270h97.5c-1.802,31.5-8.401,63.8-20.398,92H272V270z M272,466.7
	V392h62.402C318.501,420.2,297.499,445.699,272,466.7z M305.6,476.6c26.1-24.6,47.098-53.101,62.699-84.6H436.7
	C404.898,434.001,359.001,464.599,305.6,476.6z M455.9,362h-74.399c10.499-28.5,16.498-60.801,17.999-92h81.599
	C479.001,302.401,470.3,334.701,455.9,362z"/>
<path style="fill:#1BD9DE;" d="M257,0v512c140.999,0,255-117.499,255-257C512,116.4,398.599,0,257,0z M455.9,150
	c14.399,27.299,23.101,57.599,25.199,90H399.5c-1.501-31.199-7.5-61.5-17.999-90H455.9z M436.7,120h-68.401
	C352.698,88.5,331.7,60,305.6,35.4C359.001,47.401,404.898,77.999,436.7,120z M272,45.3c25.499,21,46.501,46.5,62.402,74.7H272V45.3
	z M272,150h77.102c11.997,28.2,18.596,58.5,20.398,90H272V150z M272,270h97.5c-1.802,31.5-8.401,63.8-20.398,92H272V270z M272,466.7
	V392h62.402C318.501,420.2,297.499,445.699,272,466.7z M305.6,476.6c26.1-24.6,47.098-53.101,62.699-84.6H436.7
	C404.898,434.001,359.001,464.599,305.6,476.6z M455.9,362h-74.399c10.499-28.5,16.498-60.801,17.999-92h81.599
	C479.001,302.401,470.3,334.701,455.9,362z"/>
<g>
</g>
<g>
</g>
<g>
</g>
<g>
</g>
<g>
</g>
<g>
</g>
<g>
</g>
<g>
</g>
<g>
</g>
<g>
</g>
<g>
</g>
<g>
</g>
<g>
</g>
<g>
</g>
<g>
</g>
</svg>
