<svg version="1.1" xmlns="http://www.w3.org/2000/svg" xmlns:xlink="http://www.w3.org/1999/xlink" x="0px" y="0px"
	 viewBox="0 0 512 512" style="enable-background:new 0 0 512 512;" xml:space="preserve">
<g>
	<g>
		<g>
			<path d="M511.894,19.228c-0.031-0.316-0.09-0.622-0.135-0.933c-0.054-0.377-0.098-0.755-0.172-1.13
				c-0.071-0.358-0.169-0.705-0.258-1.056c-0.081-0.323-0.152-0.648-0.249-0.968c-0.104-0.345-0.234-0.678-0.355-1.015
				c-0.115-0.319-0.22-0.641-0.35-0.956c-0.13-0.315-0.284-0.616-0.428-0.923c-0.153-0.324-0.297-0.651-0.467-0.969
				c-0.158-0.294-0.337-0.574-0.508-0.86c-0.186-0.311-0.362-0.626-0.565-0.93c-0.211-0.316-0.447-0.613-0.674-0.917
				c-0.19-0.253-0.366-0.513-0.568-0.76c-0.443-0.539-0.909-1.058-1.402-1.551c-0.004-0.004-0.007-0.008-0.011-0.012
				c-0.004-0.004-0.008-0.006-0.011-0.01c-0.494-0.493-1.012-0.96-1.552-1.403c-0.247-0.203-0.507-0.379-0.761-0.569
				c-0.303-0.227-0.6-0.462-0.916-0.673c-0.304-0.203-0.619-0.379-0.931-0.565c-0.286-0.171-0.565-0.35-0.859-0.508
				c-0.318-0.17-0.644-0.314-0.969-0.467c-0.307-0.145-0.609-0.298-0.923-0.429c-0.315-0.13-0.637-0.236-0.957-0.35
				c-0.337-0.121-0.669-0.25-1.013-0.354c-0.32-0.097-0.646-0.168-0.969-0.249c-0.351-0.089-0.698-0.187-1.055-0.258
				c-0.375-0.074-0.753-0.119-1.13-0.173c-0.311-0.044-0.617-0.104-0.933-0.135C492.072,0.037,491.37,0,490.667,0H341.333
				C329.551,0,320,9.551,320,21.333c0,11.782,9.551,21.333,21.333,21.333h97.83L283.582,198.248c-8.331,8.331-8.331,21.839,0,30.17
				s21.839,8.331,30.17,0L469.333,72.837v97.83c0,11.782,9.551,21.333,21.333,21.333S512,182.449,512,170.667V21.335
				C512,20.631,511.963,19.928,511.894,19.228z"/>
			<path d="M198.248,283.582L42.667,439.163v-97.83c0-11.782-9.551-21.333-21.333-21.333C9.551,320,0,329.551,0,341.333v149.333
				c0,0.703,0.037,1.405,0.106,2.105c0.031,0.315,0.09,0.621,0.135,0.933c0.054,0.377,0.098,0.756,0.173,1.13
				c0.071,0.358,0.169,0.704,0.258,1.055c0.081,0.324,0.152,0.649,0.249,0.969c0.104,0.344,0.233,0.677,0.354,1.013
				c0.115,0.32,0.22,0.642,0.35,0.957c0.13,0.315,0.284,0.616,0.429,0.923c0.153,0.324,0.297,0.651,0.467,0.969
				c0.158,0.294,0.337,0.573,0.508,0.859c0.186,0.311,0.362,0.627,0.565,0.931c0.211,0.316,0.446,0.612,0.673,0.916
				c0.19,0.254,0.366,0.514,0.569,0.761c0.443,0.54,0.91,1.059,1.403,1.552c0.004,0.004,0.006,0.008,0.01,0.011
				c0.004,0.004,0.008,0.007,0.012,0.011c0.493,0.492,1.012,0.959,1.551,1.402c0.247,0.203,0.507,0.379,0.76,0.568
				c0.304,0.227,0.601,0.463,0.917,0.674c0.303,0.203,0.618,0.379,0.93,0.565c0.286,0.171,0.565,0.35,0.86,0.508
				c0.318,0.17,0.645,0.314,0.969,0.467c0.307,0.145,0.609,0.298,0.923,0.428c0.315,0.13,0.636,0.235,0.956,0.35
				c0.337,0.121,0.67,0.25,1.015,0.355c0.32,0.097,0.645,0.168,0.968,0.249c0.351,0.089,0.698,0.187,1.056,0.258
				c0.375,0.074,0.753,0.118,1.13,0.172c0.311,0.044,0.618,0.104,0.933,0.135c0.7,0.069,1.402,0.106,2.104,0.106
				c0,0,0.001,0,0.001,0h149.333c11.782,0,21.333-9.551,21.333-21.333s-9.551-21.333-21.333-21.333h-97.83l155.582-155.582
				c8.331-8.331,8.331-21.839,0-30.17S206.58,275.251,198.248,283.582z"/>
		</g>
	</g>
</g>
<g>
</g>
<g>
</g>
<g>
</g>
<g>
</g>
<g>
</g>
<g>
</g>
<g>
</g>
<g>
</g>
<g>
</g>
<g>
</g>
<g>
</g>
<g>
</g>
<g>
</g>
<g>
</g>
<g>
</g>
</svg>
