<svg version="1.1" xmlns="http://www.w3.org/2000/svg" xmlns:xlink="http://www.w3.org/1999/xlink" x="0px" y="0px"
	 width="126.729px" height="126.73px" viewBox="0 0 126.729 126.73" style="enable-background:new 0 0 126.729 126.73;"
	 xml:space="preserve">
<g>
	<path d="M121.215,44.212l-34.899-3.3c-2.2-0.2-4.101-1.6-5-3.7l-12.5-30.3c-2-5-9.101-5-11.101,0l-12.4,30.3
		c-0.8,2.1-2.8,3.5-5,3.7l-34.9,3.3c-5.2,0.5-7.3,7-3.4,10.5l26.3,23.1c1.7,1.5,2.4,3.7,1.9,5.9l-7.9,32.399
		c-1.2,5.101,4.3,9.3,8.9,6.601l29.1-17.101c1.9-1.1,4.2-1.1,6.1,0l29.101,17.101c4.6,2.699,10.1-1.4,8.899-6.601l-7.8-32.399
		c-0.5-2.2,0.2-4.4,1.9-5.9l26.3-23.1C128.615,51.212,126.415,44.712,121.215,44.212z"/>
</g>
</svg>
